<svg width="32" height="32" viewBox="0 0 32 32" fill="none" xmlns="http://www.w3.org/2000/svg">
<rect width="32" height="32" fill="white"/>
<path d="M0 4C0 1.79086 1.79086 0 4 0H28C30.2091 0 32 1.79086 32 4V28C32 30.2091 30.2091 32 28 32H4C1.79086 32 0 30.2091 0 28V4Z" fill="#1B1B1B"/>
<path d="M21.5297 15.8775C21.5071 13.5263 23.4325 12.3949 23.5172 12.3436C22.4359 10.7448 20.7505 10.5225 20.152 10.4969C18.7178 10.3515 17.3485 11.3518 16.623 11.3518C15.8974 11.3518 14.771 10.5225 13.5824 10.5453C12.0155 10.5681 10.5757 11.463 9.77108 12.8737C8.14774 15.7151 9.35325 19.9329 10.9399 22.2385C11.7134 23.3671 12.6338 24.6353 13.845 24.5897C15.0138 24.5441 15.4542 23.8288 16.8658 23.8288C18.2774 23.8288 18.6726 24.5897 19.9064 24.5697C21.1599 24.5441 21.956 23.4127 22.7239 22.2841C23.6104 20.9731 23.9802 19.7049 24 19.6365C23.9718 19.628 21.5523 18.6875 21.5297 15.8718V15.8775Z" fill="white"/>
<path d="M19.2064 8.96676C19.8501 8.18304 20.2849 7.08867 20.1663 6C19.2403 6.03705 18.1167 6.62413 17.4561 7.40786C16.8575 8.10609 16.3353 9.22325 16.4764 10.2863C17.5069 10.3661 18.5656 9.75619 19.2064 8.96676Z" fill="white"/>
</svg>
