<svg width="40" height="40" viewBox="0 0 40 40" fill="none" xmlns="http://www.w3.org/2000/svg">
<path d="M12.5 7.5L8.75 12.5V30C8.75 30.663 9.01339 31.2989 9.48223 31.7678C9.95107 32.2366 10.587 32.5 11.25 32.5H28.75C29.413 32.5 30.0489 32.2366 30.5178 31.7678C30.9866 31.2989 31.25 30.663 31.25 30V12.5L27.5 7.5H12.5Z" stroke="black" stroke-linecap="round" stroke-linejoin="round"/>
<path d="M8.75 12.5H31.25" stroke="black" stroke-linecap="round" stroke-linejoin="round"/>
<path d="M25 17.5C25 18.8261 24.4732 20.0979 23.5355 21.0355C22.5979 21.9732 21.3261 22.5 20 22.5C18.6739 22.5 17.4021 21.9732 16.4645 21.0355C15.5268 20.0979 15 18.8261 15 17.5" stroke="black" stroke-linecap="round" stroke-linejoin="round"/>
</svg>
