<svg width="20" height="20" viewBox="0 0 20 20" fill="none" xmlns="http://www.w3.org/2000/svg">
  <path
    d="M10.0004 13.3344C9.80568 13.3348 9.61699 13.2669 9.46706 13.1427L4.46706 8.97604C4.29688 8.8346 4.18986 8.63134 4.16954 8.41098C4.14923 8.19062 4.21728 7.97122 4.35873 7.80104C4.50017 7.63086 4.70343 7.52384 4.92379 7.50353C5.14414 7.48321 5.36355 7.55126 5.53373 7.69271L10.0004 11.426L14.4671 7.82604C14.5523 7.75682 14.6504 7.70513 14.7557 7.67394C14.8609 7.64274 14.9714 7.63266 15.0805 7.64428C15.1897 7.6559 15.2956 7.68898 15.3919 7.74162C15.4883 7.79427 15.5733 7.86544 15.6421 7.95104C15.7184 8.03673 15.7762 8.13725 15.8118 8.24631C15.8475 8.35537 15.8602 8.47062 15.8493 8.58484C15.8383 8.69906 15.8039 8.80979 15.7482 8.91009C15.6925 9.01038 15.6166 9.09809 15.5254 9.16771L10.5254 13.1927C10.3712 13.2973 10.1863 13.3472 10.0004 13.3344Z"
    fill="#1B1B1B"
  />
</svg>