<svg width="20" height="20" viewBox="0 0 20 20" fill="none" xmlns="http://www.w3.org/2000/svg">
<path d="M1.21182 5.2226C1.3503 5.07989 1.5362 5 1.72977 5C1.92335 5 2.10925 5.07989 2.24773 5.2226L10 13.1954L17.7507 5.2226C17.8892 5.07989 18.0751 5 18.2687 5C18.4623 5 18.6482 5.07989 18.7866 5.2226C18.8542 5.29197 18.9078 5.3749 18.9445 5.46651C18.9811 5.55812 19 5.65654 19 5.75598C19 5.85541 18.9811 5.95384 18.9445 6.04545C18.9078 6.13705 18.8542 6.21999 18.7866 6.28935L10.5412 14.7677C10.3964 14.9167 10.2022 15 10 15C9.79779 15 9.60358 14.9167 9.45878 14.7677L1.21337 6.28935C1.14584 6.21999 1.09217 6.13705 1.05553 6.04544C1.01888 5.95384 1 5.85541 1 5.75598C1 5.65654 1.01888 5.55812 1.05553 5.46651C1.09217 5.3749 1.14584 5.29197 1.21337 5.2226L1.21182 5.2226Z" fill="#AFAFAF"/>
</svg>
