<svg width="22" height="22" viewBox="0 0 22 22" fill="none" xmlns="http://www.w3.org/2000/svg">
<path d="M9.89483 12.1123C9.94798 12.6659 10.0381 13.0774 10.1621 13.3489C10.2877 13.6195 10.5106 13.7544 10.8324 13.7544C10.8925 13.7544 10.9464 13.745 10.9997 13.7341C11.0544 13.745 11.108 13.7544 11.1686 13.7544C11.4895 13.7544 11.7131 13.6195 11.838 13.3489C11.9627 13.0774 12.0513 12.6659 12.1055 12.1123L12.3912 7.83747C12.4444 7.00425 12.4715 6.40641 12.4715 6.0435C12.4715 5.54956 12.3426 5.16413 12.0841 4.88741C11.8246 4.61069 11.4838 4.47266 11.0616 4.47266C11.0391 4.47266 11.0223 4.47769 11.0002 4.47856C10.9792 4.47769 10.9619 4.47266 10.94 4.47266C10.517 4.47266 10.1768 4.61069 9.9178 4.88741C9.65902 5.16456 9.5293 5.55022 9.5293 6.04372C9.5293 6.40663 9.55577 7.00447 9.6098 7.83769L9.89483 12.1123ZM11.0109 15.317C10.601 15.317 10.2527 15.4463 9.96352 15.7048C9.67455 15.9636 9.52973 16.2777 9.52973 16.6465C9.52973 17.0628 9.6763 17.3905 9.96723 17.6285C10.2595 17.8665 10.6003 17.9855 10.9899 17.9855C11.3865 17.9855 11.7323 17.8683 12.0281 17.6331C12.3234 17.3986 12.471 17.0692 12.471 16.647C12.471 16.2782 12.3297 15.964 12.0471 15.7053C11.7645 15.4463 11.4191 15.317 11.0102 15.317" fill="#AFAFAF"/>
<circle cx="11" cy="11" r="10.5" stroke="#AFAFAF"/>
</svg>
