<svg width="191" height="37" viewBox="0 0 191 37" fill="none" xmlns="http://www.w3.org/2000/svg">
<g clip-path="url(#clip0_497_3220)">
<path d="M38.373 7.59535C39.7122 8.35506 40.8178 9.4786 41.5667 10.8407C42.3242 12.2797 42.7206 13.8872 42.7206 15.5199C42.7206 17.1527 42.3242 18.7601 41.5667 20.1991C40.8178 21.5612 39.7122 22.6848 38.373 23.4445C36.9535 24.2112 35.3712 24.6121 33.7644 24.6121C32.1576 24.6121 30.5752 24.2112 29.1558 23.4445C27.8129 22.6873 26.7045 21.5633 25.9551 20.1991C25.2023 18.7586 24.8086 17.1518 24.8086 15.5199C24.8086 13.8881 25.2023 12.2813 25.9551 10.8407C26.7045 9.47653 27.8129 8.35253 29.1558 7.59535C30.5752 6.82862 32.1576 6.42773 33.7644 6.42773C35.3712 6.42773 36.9535 6.82862 38.373 7.59535ZM30.866 12.2186C30.1486 13.1641 29.7595 14.3251 29.7595 15.5199C29.7595 16.7147 30.1486 17.8758 30.866 18.8212C31.2356 19.227 31.6835 19.5506 32.1817 19.7719C32.6798 19.9932 33.2175 20.1075 33.7609 20.1075C34.3044 20.1075 34.8421 19.9932 35.3402 19.7719C35.8383 19.5506 36.2863 19.227 36.6559 18.8212C37.3766 17.8773 37.7679 16.7156 37.7679 15.5199C37.7679 14.3242 37.3766 13.1626 36.6559 12.2186C36.2874 11.811 35.8398 11.4857 35.3415 11.2632C34.8432 11.0406 34.305 10.9258 33.7609 10.9258C33.2168 10.9258 32.6787 11.0406 32.1804 11.2632C31.6821 11.4857 31.2345 11.811 30.866 12.2186Z" fill="#0080C6"/>
<path d="M71.0254 4.82677H63.3673V24.2011H58.1268V4.82677H50.4961V0.0566406H71.0254V4.82677Z" fill="#0080C6"/>
<path d="M81.83 7.59535C83.1692 8.35506 84.2749 9.4786 85.0238 10.8407C85.7813 12.2797 86.1777 13.8872 86.1777 15.5199C86.1777 17.1527 85.7813 18.7601 85.0238 20.1991C84.2749 21.5612 83.1692 22.6848 81.83 23.4445C80.4106 24.2112 78.8282 24.6121 77.2214 24.6121C75.6146 24.6121 74.0323 24.2112 72.6128 23.4445C71.27 22.6873 70.1615 21.5633 69.4122 20.1991C68.6594 18.7586 68.2656 17.1518 68.2656 15.5199C68.2656 13.8881 68.6594 12.2813 69.4122 10.8407C70.1615 9.47653 71.27 8.35253 72.6128 7.59535C74.0323 6.82862 75.6146 6.42773 77.2214 6.42773C78.8282 6.42773 80.4106 6.82862 81.83 7.59535ZM74.3299 12.2186C73.6092 13.1626 73.2179 14.3242 73.2179 15.5199C73.2179 16.7156 73.6092 17.8773 74.3299 18.8212C74.6989 19.2268 75.1463 19.5503 75.6438 19.7715C76.1414 19.9928 76.6785 20.107 77.2214 20.107C77.7643 20.107 78.3014 19.9928 78.799 19.7715C79.2966 19.5503 79.7439 19.2268 80.113 18.8212C80.8337 17.8773 81.2249 16.7156 81.2249 15.5199C81.2249 14.3242 80.8337 13.1626 80.113 12.2186C79.745 11.8112 79.298 11.486 78.8003 11.2635C78.3026 11.0411 77.765 10.9262 77.2214 10.9262C76.6779 10.9262 76.1402 11.0411 75.6425 11.2635C75.1448 11.486 74.6978 11.8112 74.3299 12.2186Z" fill="#0080C6"/>
<path d="M93.0723 31.0136C91.9659 30.5071 91.0005 29.7284 90.2632 28.7475C89.5812 27.8131 89.1268 26.7272 88.9376 25.579H94.1231C94.4116 26.8054 95.4579 27.4162 97.262 27.4116C97.7372 27.4353 98.2123 27.3608 98.6585 27.1925C99.1047 27.0242 99.5128 26.7656 99.8582 26.4324C100.187 26.0898 100.443 25.6821 100.611 25.2346C100.779 24.787 100.855 24.3091 100.833 23.8305V21.991C99.7757 23.4528 98.1686 24.1802 96.0257 24.1802C94.5306 24.2081 93.0562 23.8212 91.7605 23.0611C90.5177 22.3179 89.5096 21.2282 88.8552 19.9206C88.149 18.5196 87.7928 16.9629 87.8181 15.3883C87.7888 13.7887 88.1449 12.2061 88.8552 10.7791C89.5111 9.46158 90.5179 8.35871 91.7605 7.59663C93.0496 6.81655 94.5263 6.41696 96.0257 6.44256C98.196 6.44256 99.8032 7.142 100.833 8.63179V6.44957H105.957V23.8864C105.981 25.3451 105.593 26.7801 104.838 28.0201C104.086 29.2411 103.013 30.2226 101.74 30.8528C100.385 31.4881 98.9146 31.8303 97.4227 31.858C95.9309 31.8857 94.4496 31.5982 93.0723 31.0136ZM99.7964 18.5847C100.525 17.6833 100.923 16.5522 100.923 15.3848C100.923 14.2174 100.525 13.0863 99.7964 12.1849C99.4145 11.7703 98.9493 11.4444 98.4325 11.2295C97.9157 11.0147 97.3595 10.9159 96.8018 10.9399C96.2576 10.9184 95.7153 11.0187 95.2134 11.2338C94.7114 11.4489 94.2618 11.7736 93.8965 12.1849C93.1849 13.094 92.7974 14.2222 92.7974 15.3848C92.7974 16.5474 93.1849 17.6756 93.8965 18.5847C94.2618 18.996 94.7114 19.3207 95.2134 19.5358C95.7153 19.7509 96.2576 19.8512 96.8018 19.8297C97.3605 19.852 97.9174 19.751 98.4342 19.5337C98.9511 19.3164 99.4158 18.9879 99.7964 18.5707V18.5847Z" fill="#0080C6"/>
<path d="M112.682 23.4446C111.366 22.6795 110.286 21.5555 109.563 20.1992C108.824 18.7545 108.438 17.1493 108.438 15.5201C108.438 13.8908 108.824 12.2855 109.563 10.8408C110.286 9.48457 111.366 8.3606 112.682 7.59548C114.075 6.82904 115.634 6.42773 117.218 6.42773C118.802 6.42773 120.361 6.82904 121.755 7.59548C123.073 8.36016 124.155 9.48408 124.88 10.8408C125.641 12.2771 126.026 13.8884 125.999 15.5201C126.001 16.0838 125.964 16.6471 125.889 17.2057H113.526C113.666 18.1131 114.113 18.9421 114.79 19.5488C115.476 20.11 116.336 20.4027 117.215 20.3741C117.881 20.389 118.543 20.2628 119.158 20.0034C119.648 19.823 120.061 19.4743 120.326 19.0172H125.477C125.194 20.1145 124.638 21.119 123.863 21.9339C123.047 22.7968 122.055 23.4676 120.958 23.8993C119.766 24.377 118.495 24.6145 117.215 24.5987C115.63 24.6266 114.067 24.2285 112.682 23.4446ZM120.992 13.7994C120.845 12.8749 120.386 12.0316 119.694 11.4144C118.989 10.8569 118.114 10.5697 117.222 10.603C116.335 10.5662 115.465 10.854 114.77 11.4144C114.095 12.0408 113.65 12.8817 113.506 13.7994H120.992Z" fill="#0080C6"/>
<path d="M140.347 0.0566406H145.471V8.63168C146.02 7.89843 146.739 7.31487 147.563 6.93292C148.388 6.55097 149.292 6.38249 150.196 6.44246C151.403 6.42043 152.593 6.74264 153.63 7.3727C154.644 8.01396 155.449 8.9459 155.945 10.0515C156.52 11.3441 156.802 12.7523 156.769 14.1712V24.215H151.645V15.0455C151.715 13.9758 151.445 12.9117 150.876 12.0099C150.623 11.6641 150.29 11.3874 149.906 11.2043C149.523 11.0213 149.101 10.9376 148.678 10.9608C148.222 10.9431 147.768 11.039 147.356 11.2401C146.945 11.4412 146.587 11.7414 146.315 12.1149C145.692 13.0449 145.387 14.1589 145.45 15.2833V24.2011H140.326L140.347 0.0566406Z" fill="#0080C6"/>
<path d="M163.108 23.4446C161.79 22.6799 160.708 21.556 159.983 20.1993C159.247 18.7533 158.863 17.1486 158.863 15.5201C158.863 13.8915 159.247 12.2868 159.983 10.8408C160.708 9.48408 161.79 8.36016 163.108 7.59548C164.502 6.82904 166.061 6.42773 167.645 6.42773C169.229 6.42773 170.788 6.82904 172.181 7.59548C173.499 8.36016 174.581 9.48408 175.306 10.8408C176.067 12.2771 176.453 13.8884 176.426 15.5201C176.428 16.0838 176.391 16.6471 176.316 17.2057H163.953C164.09 18.1141 164.537 18.944 165.217 19.5488C165.902 20.1111 166.762 20.404 167.641 20.3741C168.307 20.389 168.969 20.2628 169.585 20.0034C170.075 19.823 170.488 19.4743 170.753 19.0172H175.904C175.621 20.1145 175.065 21.119 174.29 21.9339C173.471 22.7939 172.48 23.4642 171.384 23.8993C170.193 24.377 168.922 24.6145 167.641 24.5987C166.057 24.6276 164.493 24.2294 163.108 23.4446ZM171.419 13.7994C171.272 12.8749 170.813 12.0316 170.121 11.4144C169.416 10.8569 168.54 10.5697 167.648 10.603C166.762 10.5649 165.891 10.8529 165.196 11.4144C164.519 12.0387 164.073 12.8806 163.932 13.7994H171.419Z" fill="#0080C6"/>
<path d="M8.58594 15.0997H17.8993V24.612L22.6316 19.8559V10.3086H13.1946L8.58594 15.0997Z" fill="#FDB913"/>
<path d="M15.6107 24.6126H12.0872C10.476 24.6518 8.87336 24.3624 7.37356 23.7615C5.87377 23.1606 4.50711 22.2604 3.35397 21.1137C2.20083 19.9671 1.2845 18.5972 0.658868 17.0846C0.0332387 15.5721 -0.289063 13.9474 -0.289062 12.3061C-0.289063 10.6648 0.0332387 9.04014 0.658868 7.52758C1.2845 6.01501 2.20083 4.64512 3.35397 3.49848C4.50711 2.35185 5.87377 1.45161 7.37356 0.850734C8.87336 0.249855 10.476 -0.0395282 12.0872 -0.000408778H22.6369V4.76972H12.0872C11.0964 4.73898 10.1096 4.91117 9.18535 5.27607C8.2611 5.64098 7.41821 6.19118 6.70667 6.89404C5.99513 7.59689 5.42943 8.43809 5.04312 9.36776C4.65681 10.2974 4.45775 11.2966 4.45775 12.3061C4.45775 13.3156 4.65681 14.3148 5.04312 15.2445C5.42943 16.1741 5.99513 17.0153 6.70667 17.7182C7.41821 18.421 8.2611 18.9712 9.18535 19.3361C10.1096 19.701 11.0964 19.8732 12.0872 19.8425H15.6107V24.6126Z" fill="#0080C6"/>
<path d="M135.127 6.4347V1.68555H130.003V6.4347H126.665H126.26V10.967H126.665H130.003V24.2003H135.127V10.967H138.877V6.4347H135.127Z" fill="#0080C6"/>
<path d="M191.001 6.72119C190.282 6.50241 189.533 6.40321 188.783 6.42743C187.88 6.36863 186.977 6.53769 186.154 6.91959C185.331 7.30149 184.613 7.88442 184.064 8.61664V6.43442H178.934V24.2H184.064V15.3102C184.032 14.7379 184.119 14.1652 184.321 13.6298C184.522 13.0945 184.832 12.6087 185.232 12.2047C185.672 11.808 186.185 11.5041 186.742 11.3108C187.298 11.1175 187.887 11.0386 188.474 11.0787C189.36 11.0542 190.239 11.2486 191.036 11.6452L191.001 6.72119Z" fill="#0080C6"/>
<path d="M168.556 36.1685H161.742V35.3572H164.132V32.5595H165.121V35.3572H168.556V36.1685ZM167.512 29.8737C167.576 29.8692 167.639 29.8892 167.69 29.9296C167.728 29.9819 167.745 30.0469 167.738 30.1115C167.738 30.4262 167.69 30.7619 167.663 31.1186C167.635 31.4754 167.594 31.8181 167.553 32.2098C167.512 32.6014 167.47 32.9582 167.415 33.3219C167.36 33.6856 167.312 34.0213 167.257 34.357H166.358C166.461 33.7625 166.557 33.147 166.632 32.5105C166.708 31.874 166.756 31.2585 166.77 30.671H162.484V29.8946L167.512 29.8737Z" fill="#939598"/>
<path d="M176.254 34.7766H173.362V37.0008H172.414V34.7766H169.447V33.9793H176.254V34.7766ZM170.546 29.6777H175.423V30.4611H171.267V31.1605H175.388V31.9159H171.267V32.6154H175.484V33.3847H170.546C170.516 33.3888 170.485 33.3866 170.455 33.3782C170.426 33.3698 170.398 33.3553 170.374 33.3358C170.355 33.3102 170.341 33.281 170.333 33.2497C170.324 33.2185 170.322 33.186 170.326 33.1539V29.9645C170.323 29.9002 170.34 29.8365 170.374 29.7827C170.395 29.7545 170.421 29.7308 170.45 29.7128C170.48 29.6948 170.512 29.6828 170.546 29.6777Z" fill="#939598"/>
<path d="M180.127 29.9779C180.159 29.9715 180.192 29.9733 180.224 29.983C180.255 29.9927 180.283 30.0101 180.306 30.0336C180.329 30.057 180.346 30.0859 180.356 30.1177C180.365 30.1494 180.367 30.1831 180.361 30.2157C180.344 31.255 180.129 32.281 179.729 33.2372C179.336 34.1294 178.72 34.9011 177.943 35.4754L177.133 34.9159C177.825 34.4655 178.4 33.8512 178.809 33.1253C179.193 32.4009 179.395 31.5914 179.399 30.7682H177.524V29.9779H180.127ZM181.11 36.6435V33.0274H180.107V32.1811H181.11V29.6142H182.016V36.6435H181.11ZM182.579 37.0002V29.4883H183.479V37.0002H182.579Z" fill="#939598"/>
<path d="M185.643 35.209C185.612 35.2133 185.58 35.2111 185.549 35.2027C185.518 35.1943 185.49 35.1798 185.465 35.16C185.431 35.1058 185.417 35.0418 185.423 34.9782V30.1941C185.416 30.1619 185.416 30.1283 185.425 30.0964C185.433 30.0644 185.45 30.0352 185.472 30.0115C185.495 29.9877 185.523 29.9702 185.554 29.9606C185.585 29.9509 185.618 29.9494 185.65 29.9563H188.823V30.7536H186.351V34.3907H187.099C187.285 34.3907 187.504 34.3907 187.786 34.3557L188.528 34.2788L189.173 34.2018L189.524 34.1459V34.9502L189.132 35.0062L188.445 35.0901L187.601 35.174C187.298 35.174 187.017 35.174 186.749 35.174L185.643 35.209ZM191 29.5156V37.0275H190.059V32.754H188.136V31.9427H190.059V29.5156H191Z" fill="#939598"/>
</g>
<defs>
<clipPath id="clip0_497_3220">
<rect width="191" height="37" fill="white"/>
</clipPath>
</defs>
</svg>
