<svg width="40" height="40" viewBox="0 0 40 40" fill="none" xmlns="http://www.w3.org/2000/svg">
<path d="M36.2322 12.1977L36.2332 12.2016C36.4226 12.9306 36.5128 13.6817 36.5012 14.4348L36.501 14.4456L36.5011 14.4565C36.5101 15.8841 36.1343 17.2878 35.4131 18.52L35.4059 18.5322L35.3991 18.5446C35.0474 19.1865 34.6001 19.773 34.0766 20.2855L34.0765 20.2855L34.069 20.293L20.0011 34.3609L5.9332 20.293L5.9332 20.293L5.93048 20.2903C5.40244 19.7663 4.94548 19.1753 4.57131 18.5324C4.22503 17.9037 3.95518 17.2359 3.76752 16.5432C3.5902 15.8635 3.50109 15.1599 3.50109 14.4501V14.4425L3.50098 14.4349C3.48948 13.6818 3.57962 12.9306 3.76898 12.2015L3.76904 12.2016L3.7717 12.1908C4.12524 10.7649 4.87057 9.46634 5.92346 8.44185L5.92351 8.44191L5.93201 8.43343C6.70699 7.66105 7.62459 7.04653 8.63385 6.624C10.6627 5.79227 12.9373 5.792 14.9663 6.62318C15.9064 7.02177 16.7717 7.57738 17.5252 8.26609L17.6079 8.36533L17.6369 8.40017L17.669 8.43225L19.294 10.0573L20.0011 10.7644L20.7082 10.0573L22.3332 8.43225L22.3653 8.40018L22.3943 8.36533L22.477 8.26609C23.2305 7.57737 24.0958 7.02177 25.0359 6.62318C27.0649 5.792 29.3395 5.79227 31.3683 6.624C32.3776 7.04653 33.2952 7.66105 34.0702 8.43344L34.0759 8.43914L34.0817 8.44476C34.6063 8.9509 35.0497 9.5348 35.3965 10.1759L35.4046 10.1909L35.4133 10.2056C35.778 10.8281 36.0536 11.4987 36.2322 12.1977Z" stroke="#1B1B1B" stroke-width="2"/>
</svg>
