<svg width="32" height="32" viewBox="0 0 32 32" fill="none" xmlns="http://www.w3.org/2000/svg">
<rect width="32" height="32" fill="white"/>
<rect width="32" height="32" rx="4" fill="#FFE810"/>
<path d="M16.492 7.00621C11.245 7.01241 6.9936 10.2704 7.00001 14.2817C7.00321 16.864 8.76715 19.1207 11.4179 20.4103L10.5247 23.6466C10.4927 23.7458 10.5183 23.8512 10.5919 23.9225C10.6431 23.9721 10.7104 24 10.7872 24C10.8448 24 10.9024 23.9752 10.9505 23.938L14.7985 21.4147C15.3555 21.4922 15.9286 21.5356 16.508 21.5325C21.755 21.5263 26.0032 18.2682 26 14.2538C25.9968 10.2394 21.7358 6.99381 16.4888 7.00001" fill="#5D514E"/>
</svg>
