<svg width="28" height="28" viewBox="0 0 28 28" fill="none" xmlns="http://www.w3.org/2000/svg">
<path d="M12.584 17.123V17.2285H14.377V17.123C14.4033 15.6904 14.8164 15.0576 15.8711 14.416C16.9873 13.7305 17.6641 12.79 17.6641 11.375C17.6641 9.37109 16.1348 8 13.8496 8C11.7578 8 10.0703 9.22168 10 11.4629H11.8984C11.9775 10.1621 12.9004 9.58203 13.8496 9.58203C14.9043 9.58203 15.748 10.2764 15.748 11.375C15.748 12.2979 15.1855 12.9482 14.4473 13.3965C13.2871 14.1172 12.6104 14.8203 12.584 17.123ZM12.3027 19.7773C12.2939 20.4629 12.8652 21.0166 13.5508 21.0254C14.2275 21.0166 14.79 20.4629 14.7988 19.7773C14.79 19.0918 14.2275 18.5293 13.5508 18.5293C12.8652 18.5293 12.2939 19.0918 12.3027 19.7773Z" fill="#4683DE"/>
<circle cx="14" cy="14" r="13.5" stroke="#0080C6"/>
</svg>
