<svg width="50" height="50" viewBox="0 0 50 50" fill="none" xmlns="http://www.w3.org/2000/svg">
<circle r="24.5" transform="matrix(-1 0 0 1 25 25)" fill="white" stroke="#AFAFAF"/>
<path d="M28.7527 15.2408C28.9112 15.3983 29 15.6096 29 15.8297C29 16.0498 28.9112 16.2611 28.7527 16.4186L19.894 25.2323L28.7527 34.0442C28.9112 34.2017 29 34.413 29 34.6331C29 34.8532 28.9112 35.0645 28.7527 35.222C28.6756 35.2987 28.5834 35.3598 28.4817 35.4014C28.3799 35.4431 28.2705 35.4645 28.16 35.4645C28.0495 35.4645 27.9402 35.4431 27.8384 35.4014C27.7366 35.3598 27.6445 35.2987 27.5674 35.222L18.1469 25.8476C17.9815 25.683 17.8889 25.4622 17.8889 25.2323C17.8889 25.0024 17.9815 24.7816 18.1469 24.617L27.5674 15.2426C27.6445 15.1658 27.7366 15.1048 27.8384 15.0631C27.9402 15.0215 28.0495 15 28.16 15C28.2705 15 28.3799 15.0215 28.4817 15.0631C28.5834 15.1048 28.6756 15.1658 28.7527 15.2426V15.2408Z" fill="#AFAFAF"/>
</svg>
