<svg width="109" height="21" viewBox="0 0 109 21" fill="none" xmlns="http://www.w3.org/2000/svg">
<g clip-path="url(#clip0_497_7337)">
<path d="M21.7768 4.31114C22.5369 4.74232 23.1645 5.38001 23.5895 6.1531C24.0194 6.96985 24.2444 7.88217 24.2444 8.80887C24.2444 9.73557 24.0194 10.6479 23.5895 11.4646C23.1645 12.2377 22.5369 12.8754 21.7768 13.3066C20.9712 13.7418 20.0731 13.9693 19.1611 13.9693C18.2492 13.9693 17.3511 13.7418 16.5454 13.3066C15.7833 12.8768 15.1542 12.2389 14.7289 11.4646C14.3016 10.647 14.0781 9.73504 14.0781 8.80887C14.0781 7.88269 14.3016 6.9707 14.7289 6.1531C15.1542 5.37884 15.7833 4.74089 16.5454 4.31114C17.3511 3.87597 18.2492 3.64844 19.1611 3.64844C20.0731 3.64844 20.9712 3.87597 21.7768 4.31114ZM17.5161 6.93514C17.109 7.47176 16.8881 8.13074 16.8881 8.80887C16.8881 9.487 17.109 10.146 17.5161 10.6826C17.7259 10.9129 17.9801 11.0965 18.2629 11.2222C18.5456 11.3478 18.8507 11.4126 19.1592 11.4126C19.4676 11.4126 19.7728 11.3478 20.0555 11.2222C20.3382 11.0965 20.5925 10.9129 20.8023 10.6826C21.2113 10.1468 21.4334 9.48752 21.4334 8.80887C21.4334 8.13022 21.2113 7.47092 20.8023 6.93514C20.5931 6.70382 20.3391 6.51917 20.0563 6.39287C19.7735 6.26657 19.468 6.20137 19.1592 6.20137C18.8504 6.20137 18.5449 6.26657 18.2621 6.39287C17.9793 6.51917 17.7253 6.70382 17.5161 6.93514Z" fill="#0080C6"/>
<path d="M40.3119 2.73862H35.9654V13.7348H32.9911V2.73862H28.6602V0.03125H40.3119V2.73862Z" fill="#0080C6"/>
<path d="M46.4409 4.31114C47.201 4.74232 47.8285 5.38001 48.2536 6.1531C48.6835 6.96985 48.9085 7.88217 48.9085 8.80887C48.9085 9.73557 48.6835 10.6479 48.2536 11.4646C47.8285 12.2377 47.201 12.8754 46.4409 13.3066C45.6353 13.7418 44.7372 13.9693 43.8252 13.9693C42.9132 13.9693 42.0152 13.7418 41.2095 13.3066C40.4474 12.8768 39.8182 12.2389 39.3929 11.4646C38.9657 10.647 38.7422 9.73504 38.7422 8.80887C38.7422 7.88269 38.9657 6.9707 39.3929 6.1531C39.8182 5.37884 40.4474 4.74089 41.2095 4.31114C42.0152 3.87597 42.9132 3.64844 43.8252 3.64844C44.7372 3.64844 45.6353 3.87597 46.4409 4.31114ZM42.1841 6.93514C41.775 7.47092 41.553 8.13022 41.553 8.80887C41.553 9.48752 41.775 10.1468 42.1841 10.6826C42.3935 10.9128 42.6474 11.0964 42.9298 11.2219C43.2122 11.3475 43.517 11.4123 43.8252 11.4123C44.1334 11.4123 44.4382 11.3475 44.7206 11.2219C45.003 11.0964 45.2569 10.9128 45.4664 10.6826C45.8754 10.1468 46.0974 9.48752 46.0974 8.80887C46.0974 8.13022 45.8754 7.47092 45.4664 6.93514C45.2575 6.70392 45.0038 6.51934 44.7213 6.39308C44.4388 6.26682 44.1337 6.20163 43.8252 6.20163C43.5167 6.20163 43.2116 6.26682 42.9291 6.39308C42.6466 6.51934 42.3929 6.70392 42.1841 6.93514Z" fill="#0080C6"/>
<path d="M52.8268 17.6027C52.1989 17.3152 51.651 16.8732 51.2325 16.3165C50.8454 15.7861 50.5875 15.1698 50.4801 14.5182H53.4233C53.587 15.2142 54.1808 15.5609 55.2047 15.5582C55.4745 15.5717 55.7441 15.5294 55.9973 15.4339C56.2506 15.3384 56.4822 15.1916 56.6783 15.0025C56.8649 14.8081 57.0104 14.5767 57.1056 14.3226C57.2008 14.0686 57.2438 13.7973 57.2318 13.5257V12.4817C56.6315 13.3114 55.7193 13.7242 54.5031 13.7242C53.6545 13.74 52.8177 13.5205 52.0823 13.089C51.3769 12.6672 50.8048 12.0488 50.4333 11.3066C50.0325 10.5114 49.8304 9.62792 49.8447 8.73423C49.8281 7.82633 50.0302 6.92812 50.4333 6.11816C50.8056 5.3704 51.377 4.74445 52.0823 4.31192C52.8139 3.86917 53.6521 3.64237 54.5031 3.65691C55.7349 3.65691 56.6471 4.05388 57.2318 4.89944V3.66088H60.1399V13.5575C60.1535 14.3854 59.9329 15.1998 59.5045 15.9036C59.0779 16.5966 58.4687 17.1537 57.7464 17.5114C56.9771 17.8719 56.1427 18.0662 55.296 18.0819C54.4493 18.0976 53.6085 17.9344 52.8268 17.6027ZM56.6432 10.5484C57.0566 10.0368 57.2826 9.3948 57.2826 8.73224C57.2826 8.06967 57.0566 7.42769 56.6432 6.91608C56.4265 6.68074 56.1624 6.49579 55.8691 6.37384C55.5758 6.25189 55.2601 6.19583 54.9436 6.20946C54.6347 6.19724 54.3269 6.25418 54.042 6.37627C53.7571 6.49836 53.502 6.68263 53.2946 6.91608C52.8907 7.43207 52.6708 8.07239 52.6708 8.73224C52.6708 9.39209 52.8907 10.0324 53.2946 10.5484C53.502 10.7818 53.7571 10.9661 54.042 11.0882C54.3269 11.2103 54.6347 11.2672 54.9436 11.255C55.2607 11.2676 55.5767 11.2103 55.8701 11.087C56.1634 10.9637 56.4272 10.7772 56.6432 10.5405V10.5484Z" fill="#0080C6"/>
<path d="M63.9557 13.3067C63.2089 12.8724 62.596 12.2345 62.1859 11.4647C61.7661 10.6447 61.5469 9.73368 61.5469 8.80894C61.5469 7.88421 61.7661 6.97314 62.1859 6.15318C62.596 5.3834 63.2089 4.74547 63.9557 4.31121C64.7467 3.8762 65.6315 3.64844 66.5305 3.64844C67.4295 3.64844 68.3143 3.8762 69.1053 4.31121C69.8532 4.74522 70.4675 5.38312 70.879 6.15318C71.3108 6.96833 71.5296 7.88286 71.5144 8.80894C71.5153 9.12893 71.4945 9.4486 71.452 9.76565H64.4352C64.5144 10.2807 64.7682 10.7512 65.1525 11.0955C65.5415 11.414 66.0296 11.5802 66.5286 11.5639C66.9066 11.5724 67.2823 11.5008 67.6317 11.3535C67.9099 11.2512 68.1442 11.0532 68.2944 10.7938H71.2181C71.0575 11.4166 70.742 11.9867 70.302 12.4492C69.8388 12.939 69.276 13.3197 68.6531 13.5647C67.9768 13.8358 67.2553 13.9707 66.5286 13.9617C65.6293 13.9775 64.7419 13.7516 63.9557 13.3067ZM68.6726 7.83238C68.589 7.30766 68.3284 6.82899 67.9358 6.47869C67.5355 6.1623 67.0388 5.9993 66.5325 6.01821C66.0294 5.99729 65.5357 6.16066 65.1408 6.47869C64.7581 6.83424 64.5053 7.31148 64.4235 7.83238H68.6726Z" fill="#0080C6"/>
<path d="M79.6562 0.03125H82.5643V4.89817C82.8761 4.482 83.2842 4.15078 83.7521 3.934C84.22 3.71722 84.7333 3.62159 85.2463 3.65563C85.9316 3.64313 86.6067 3.826 87.1954 4.18361C87.7708 4.54757 88.2278 5.0765 88.5091 5.70403C88.8357 6.43767 88.9956 7.23691 88.9769 8.04221V13.7428H86.0688V8.53843C86.1083 7.93133 85.9553 7.32735 85.6322 6.81556C85.4886 6.61928 85.2995 6.4622 85.0819 6.35831C84.8643 6.25442 84.6248 6.20694 84.3848 6.22009C84.1258 6.21007 83.8683 6.26448 83.6347 6.37862C83.401 6.49275 83.1982 6.66316 83.0438 6.8751C82.6898 7.40296 82.5171 8.03521 82.5526 8.6734V13.7348H79.6445L79.6562 0.03125Z" fill="#0080C6"/>
<path d="M92.5733 13.3067C91.8254 12.8727 91.2111 12.2348 90.7997 11.4647C90.382 10.644 90.1641 9.73325 90.1641 8.80894C90.1641 7.88463 90.382 6.97384 90.7997 6.15318C91.2111 5.38312 91.8254 4.74522 92.5733 4.31121C93.3643 3.8762 94.2492 3.64844 95.1481 3.64844C96.0471 3.64844 96.9319 3.8762 97.7229 4.31121C98.4709 4.74522 99.0851 5.38312 99.4966 6.15318C99.9284 6.96833 100.147 7.88286 100.132 8.80894C100.133 9.12893 100.112 9.4486 100.07 9.76565H93.0528C93.1304 10.2812 93.3845 10.7523 93.7701 11.0955C94.1588 11.4147 94.6472 11.5809 95.1462 11.5639C95.5242 11.5724 95.8999 11.5008 96.2494 11.3536C96.5275 11.2512 96.7618 11.0532 96.9121 10.7938H99.8357C99.6751 11.4166 99.3596 11.9867 98.9196 12.4492C98.4551 12.9373 97.8926 13.3178 97.2707 13.5647C96.5944 13.8358 95.8729 13.9707 95.1462 13.9617C94.2469 13.9781 93.3593 13.7521 92.5733 13.3067ZM97.2902 7.83238C97.2066 7.30766 96.9461 6.82899 96.5534 6.47869C96.1532 6.1623 95.6564 5.9993 95.1501 6.01821C94.6469 5.99658 94.1529 6.16003 93.7584 6.47869C93.3742 6.83305 93.1211 7.31086 93.0411 7.83238H97.2902Z" fill="#0080C6"/>
<path d="M4.875 8.57084H10.161V13.9697L12.8468 11.2703V5.85156H7.4907L4.875 8.57084Z" fill="#FDB913"/>
<path d="M8.86011 13.9676H6.86032C5.94584 13.9898 5.03623 13.8256 4.18499 13.4846C3.33376 13.1435 2.55809 12.6326 1.9036 11.9818C1.24912 11.331 0.729039 10.5535 0.373952 9.695C0.0188652 8.83652 -0.164063 7.91439 -0.164062 6.98286C-0.164063 6.05133 0.0188652 5.1292 0.373952 4.27072C0.729039 3.41224 1.24912 2.63473 1.9036 1.98394C2.55809 1.33314 3.33376 0.822199 4.18499 0.48116C5.03623 0.140121 5.94584 -0.0241241 6.86032 -0.0019212H12.848V2.70545H6.86032C6.29796 2.688 5.73788 2.78573 5.21331 2.99284C4.68873 3.19995 4.21033 3.51222 3.80649 3.91114C3.40264 4.31006 3.08157 4.7875 2.86231 5.31515C2.64305 5.8428 2.53007 6.40991 2.53007 6.98286C2.53007 7.55581 2.64305 8.12292 2.86231 8.65057C3.08157 9.17822 3.40264 9.65566 3.80649 10.0546C4.21033 10.4535 4.68873 10.7658 5.21331 10.9729C5.73788 11.18 6.29796 11.2777 6.86032 11.2603H8.86011V13.9676Z" fill="#0080C6"/>
<path d="M76.6928 3.65249V0.957031H73.7847V3.65249H71.8901H71.6602V6.2249H71.8901H73.7847V13.7357H76.6928V6.2249H78.8212V3.65249H76.6928Z" fill="#0080C6"/>
<path d="M108.404 3.81383C107.996 3.68966 107.571 3.63336 107.145 3.6471C106.632 3.61373 106.12 3.70968 105.653 3.92644C105.186 4.14319 104.778 4.47404 104.467 4.88963V3.65107H101.555V13.7342H104.467V8.68869C104.448 8.36387 104.498 8.03878 104.612 7.73494C104.726 7.43109 104.903 7.15541 105.129 6.92612C105.379 6.70092 105.671 6.52847 105.986 6.41876C106.302 6.30905 106.636 6.26426 106.969 6.28699C107.472 6.27313 107.971 6.38345 108.423 6.60853L108.404 3.81383Z" fill="#0080C6"/>
<path d="M95.6639 20.5262H91.7969V20.0658H93.1535V18.4779H93.7148V20.0658H95.6639V20.5262ZM95.0714 16.9535C95.1079 16.951 95.1439 16.9623 95.1727 16.9852C95.1942 17.0149 95.204 17.0518 95.2 17.0884C95.2 17.2671 95.1727 17.4576 95.1571 17.6601C95.1416 17.8625 95.1182 18.0571 95.0948 18.2794C95.0714 18.5017 95.048 18.7041 95.0168 18.9106C94.9856 19.117 94.9583 19.3075 94.9271 19.4981H94.4165C94.4749 19.1607 94.5295 18.8113 94.5724 18.4501C94.6153 18.0888 94.6426 17.7395 94.6504 17.406H92.2179V16.9654L95.0714 16.9535Z" fill="#939598"/>
<path d="M100.035 19.7377H98.3939V21.0001H97.8559V19.7377H96.1719V19.2852H100.035V19.7377ZM96.7956 16.8438H99.5633V17.2884H97.2049V17.6853H99.5438V18.1141H97.2049V18.511H99.5984V18.9477H96.7956C96.7783 18.95 96.7608 18.9488 96.7441 18.944C96.7273 18.9392 96.7117 18.931 96.6981 18.9199C96.6871 18.9054 96.679 18.8888 96.6744 18.8711C96.6697 18.8534 96.6685 18.8349 96.6708 18.8167V17.0065C96.6689 16.97 96.6784 16.9338 96.6981 16.9033C96.7097 16.8873 96.7243 16.8738 96.741 16.8636C96.7578 16.8534 96.7763 16.8467 96.7956 16.8438Z" fill="#939598"/>
<path d="M102.235 17.0162C102.253 17.0126 102.272 17.0136 102.289 17.0191C102.307 17.0246 102.323 17.0344 102.336 17.0478C102.349 17.0611 102.359 17.0775 102.364 17.0955C102.37 17.1135 102.371 17.1326 102.367 17.1511C102.358 17.741 102.236 18.3234 102.009 18.8661C101.786 19.3724 101.436 19.8104 100.995 20.1364L100.535 19.8188C100.928 19.5632 101.254 19.2145 101.486 18.8026C101.704 18.3914 101.819 17.9319 101.822 17.4647H100.757V17.0162H102.235ZM102.792 20.7993V18.747H102.223V18.2666H102.792V16.8097H103.307V20.7993H102.792ZM103.626 21.0018V16.7383H104.137V21.0018H103.626Z" fill="#939598"/>
<path d="M105.362 19.9853C105.344 19.9877 105.326 19.9865 105.309 19.9817C105.291 19.9769 105.275 19.9687 105.261 19.9575C105.242 19.9267 105.234 19.8904 105.237 19.8543V17.139C105.233 17.1207 105.233 17.1016 105.238 17.0835C105.243 17.0654 105.252 17.0488 105.265 17.0353C105.278 17.0219 105.294 17.0119 105.312 17.0064C105.329 17.001 105.348 17.0001 105.366 17.004H107.167V17.4566H105.764V19.5208H106.189C106.294 19.5208 106.419 19.5208 106.578 19.501L106.999 19.4573L107.366 19.4136L107.565 19.3819V19.8384L107.342 19.8702L106.953 19.9178L106.473 19.9654C106.302 19.9654 106.142 19.9654 105.99 19.9654L105.362 19.9853ZM108.403 16.7539V21.0174H107.869V18.5919H106.777V18.1314H107.869V16.7539H108.403Z" fill="#939598"/>
</g>
<defs>
<clipPath id="clip0_497_7337">
<rect width="108.405" height="21" fill="white"/>
</clipPath>
</defs>
</svg>
