<svg width="180" height="180" viewBox="0 0 180 180" fill="none" xmlns="http://www.w3.org/2000/svg">
<path d="M149.344 108.562H128.25V119.25H149.344C152.156 119.25 154.688 121.5 154.688 124.594C154.688 127.687 152.437 129.938 149.344 129.938H17.7188C14.9063 129.938 12.375 132.187 12.375 135.281C12.375 138.094 14.625 140.625 17.7188 140.625H149.625C158.344 140.625 165.375 133.594 165.375 124.875C165.375 115.594 158.062 108.562 149.344 108.562ZM153.281 72.2812L142.875 71.4375C142.875 71.1562 149.344 32.625 150.75 24.75C151.594 20.25 153.281 7.59375 169.312 7.59375V18.2812C162.844 18.2812 162 20.8125 161.438 25.5938C159.75 33.4688 153.281 71.7188 153.281 72.2812Z" fill="#B2C1C0"/>
<path d="M153.843 34.5938H11.2491C5.90535 34.5938 5.0616 39.6563 5.90535 42.4688L21.9366 113.906C22.7803 116.719 25.5928 118.969 28.6866 118.969H140.624C143.437 118.969 146.249 116.719 146.812 113.625L158.624 39.6563C158.905 37.125 156.655 34.5938 153.843 34.5938ZM19.4053 58.5L16.5928 47.8125C16.3116 46.4062 17.1553 45.2813 18.5616 45.2813H38.5303C39.9366 45.2813 41.3428 46.4062 41.3428 47.8125L42.4678 58.5C42.7491 59.9062 41.6241 61.0313 40.2178 61.0313H22.4991C21.0928 61.0313 19.6866 59.9062 19.4053 58.5ZM28.4053 84.6562C26.9991 84.6562 25.5928 83.5313 25.0303 82.125L23.0616 73.9687C22.7803 72.5625 23.6241 71.4375 25.0303 71.4375H41.0616C42.4678 71.4375 43.8741 72.5625 43.8741 73.9687L44.7178 81.8437C44.9991 83.25 43.8741 84.375 42.4678 84.375C42.7491 84.6563 28.4053 84.6562 28.4053 84.6562ZM45.2803 108.562H34.3116C32.9053 108.562 31.4991 107.438 30.9366 106.031L28.9678 97.875C28.6866 96.4688 29.5303 95.3438 30.9366 95.3438H43.5928C44.9991 95.3438 46.4053 96.4688 46.4053 97.875L47.2491 105.75C47.8116 107.156 46.6866 108.562 45.2803 108.562ZM77.6241 105.75C77.6241 107.156 76.4991 108.281 75.0928 108.281H61.3116C59.9053 108.281 58.4991 107.156 58.4991 105.75L57.6553 97.875C57.3741 96.4688 58.4991 95.3438 59.9053 95.3438H75.0928C76.4991 95.3438 77.6241 96.4688 77.6241 97.875V105.75ZM77.6241 82.125C77.6241 83.5313 76.4991 84.6562 75.0928 84.6562H58.7803C57.3741 84.6562 55.9678 83.5313 55.9678 82.125L55.1241 74.25C54.8428 72.8438 55.9678 71.7188 57.3741 71.7188H75.0928C76.4991 71.7188 77.6241 72.8438 77.6241 74.25V82.125ZM77.6241 58.5C77.6241 59.9062 76.4991 61.0313 75.0928 61.0313H56.2491C54.8428 61.0313 53.4366 59.9062 53.4366 58.5L52.0303 47.8125C51.7491 46.4062 52.8741 45.2813 54.2803 45.2813H74.8116C76.2178 45.2813 77.3428 46.4062 77.3428 47.8125C77.6241 47.8125 77.6241 58.5 77.6241 58.5ZM106.312 105.75C106.03 107.156 104.905 108.281 103.499 108.281H91.1241C89.7178 108.281 88.5928 107.156 88.5928 105.75V97.875C88.5928 96.4688 89.7178 95.3438 91.1241 95.3438H104.905C106.312 95.3438 107.437 96.4688 107.155 97.875L106.312 105.75ZM108.843 82.125C108.562 83.5313 107.437 84.6562 106.03 84.6562H91.1241C89.7178 84.6562 88.5928 83.5313 88.5928 82.125V74.25C88.5928 72.8438 89.7178 71.7188 91.1241 71.7188H107.437C108.843 71.7188 109.968 72.8438 109.687 74.25L108.843 82.125ZM111.374 58.5C111.093 59.9062 109.968 61.0313 108.562 61.0313H91.1241C89.7178 61.0313 88.5928 59.9062 88.5928 58.5V47.8125C88.5928 46.4062 89.7178 45.2813 91.1241 45.2813H110.249C111.655 45.2813 112.78 46.4062 112.499 47.8125L111.374 58.5ZM135.843 105.75C135.562 107.156 134.155 108.281 132.749 108.281H119.249C117.843 108.281 116.718 107.156 116.999 105.75L117.843 97.875C118.124 96.4688 119.249 95.3438 120.655 95.3438H134.999C136.405 95.3438 137.53 96.4688 137.249 97.875L135.843 105.75ZM139.499 82.125C139.218 83.5313 137.812 84.6562 136.405 84.6562H121.499C120.093 84.6562 118.968 83.5313 119.249 82.125L120.093 74.25C120.374 72.8438 121.499 71.7188 122.905 71.7188H138.374C139.78 71.7188 140.905 72.8438 140.624 74.25L139.499 82.125ZM143.155 58.5C142.874 59.9062 141.468 61.0313 140.062 61.0313H124.03C122.624 61.0313 121.499 59.9062 121.78 58.5L122.905 47.8125C123.187 46.4062 124.312 45.2813 125.718 45.2813H142.312C143.718 45.2813 144.843 46.4062 144.562 47.8125L143.155 58.5Z" fill="#FFDD67"/>
<path d="M34.5938 174.375C43.2922 174.375 50.3438 167.323 50.3438 158.625C50.3438 149.927 43.2922 142.875 34.5938 142.875C25.8953 142.875 18.8438 149.927 18.8438 158.625C18.8438 167.323 25.8953 174.375 34.5938 174.375Z" fill="#62727A"/>
<path d="M34.5938 166.5C38.943 166.5 42.4688 162.974 42.4688 158.625C42.4688 154.276 38.943 150.75 34.5938 150.75C30.2445 150.75 26.7188 154.276 26.7188 158.625C26.7188 162.974 30.2445 166.5 34.5938 166.5Z" fill="white"/>
<path d="M129.656 174.375C138.355 174.375 145.406 167.323 145.406 158.625C145.406 149.927 138.355 142.875 129.656 142.875C120.958 142.875 113.906 149.927 113.906 158.625C113.906 167.323 120.958 174.375 129.656 174.375Z" fill="#62727A"/>
<path d="M137.531 158.625C137.531 163.125 133.875 166.5 129.656 166.5C125.156 166.5 121.781 162.844 121.781 158.625C121.781 154.125 125.437 150.75 129.656 150.75C133.875 150.75 137.531 154.125 137.531 158.625Z" fill="white"/>
<path d="M171.844 5.625H163.969V21.375H171.844C173.25 21.375 174.375 20.25 174.375 18.8437V8.15625C174.375 6.75 173.25 5.625 171.844 5.625Z" fill="#62727A"/>
<path d="M34.5938 137.531C23.0625 137.531 13.5 147.094 13.5 158.625H55.6875C55.6875 146.813 46.4062 137.531 34.5938 137.531ZM129.656 137.531C118.125 137.531 108.562 147.094 108.562 158.625H150.75C150.75 146.813 141.188 137.531 129.656 137.531Z" fill="#FFDD67"/>
</svg>
