<svg width="180" height="180" viewBox="0 0 180 180" fill="none" xmlns="http://www.w3.org/2000/svg">
<path d="M109.406 119.961L120.011 109.359L165.083 154.431L154.478 165.032L109.406 119.961Z" fill="#616161"/>
<path d="M75 135C108.137 135 135 108.137 135 75C135 41.8629 108.137 15 75 15C41.8629 15 15 41.8629 15 75C15 108.137 41.8629 135 75 135Z" fill="#888888"/>
<path d="M121.688 132.527L132.289 121.922L164.899 154.532L154.294 165.137L121.688 132.527Z" fill="#37474F"/>
<path d="M75 123.75C101.924 123.75 123.75 101.924 123.75 75C123.75 48.0761 101.924 26.25 75 26.25C48.0761 26.25 26.25 48.0761 26.25 75C26.25 101.924 48.0761 123.75 75 123.75Z" fill="#64B5F6"/>
<path d="M100.875 53.25C94.4998 45.75 85.1248 41.25 74.9998 41.25C64.8748 41.25 55.4998 45.75 49.1248 53.25C47.6248 54.75 47.9998 57.375 49.4998 58.5C50.9998 60 53.6248 59.625 54.7498 58.125C59.9998 52.125 67.1248 48.75 74.9998 48.75C82.8748 48.75 89.9998 52.125 95.2498 58.125C95.9998 58.875 97.1248 59.625 98.2498 59.625C98.9998 59.625 100.125 59.25 100.5 58.875C102 57.375 102 54.75 100.875 53.25Z" fill="#BBDEFB"/>
</svg>
