<svg width="180" height="180" viewBox="0 0 180 180" fill="none" xmlns="http://www.w3.org/2000/svg">
<path d="M90 167C132.526 167 167 132.526 167 90C167 47.4741 132.526 13 90 13C47.4741 13 13 47.4741 13 90C13 132.526 47.4741 167 90 167Z" fill="#FFDD67"/>
<path d="M113.344 135.281C113.344 148.219 102.937 158.625 90 158.625C77.0625 158.625 66.6562 148.219 66.6562 135.281C66.6562 122.344 77.0625 111.938 90 111.938C102.937 111.938 113.344 122.344 113.344 135.281Z" fill="#664E27"/>
<path d="M73.6875 126C77.0625 120.375 82.9687 116.438 90 116.438C97.0312 116.438 103.219 120.094 106.312 126H73.6875Z" fill="white"/>
<path d="M122.344 105.469C129.334 105.469 135 99.8024 135 92.8125C135 85.8226 129.334 80.1562 122.344 80.1562C115.354 80.1562 109.688 85.8226 109.688 92.8125C109.688 99.8024 115.354 105.469 122.344 105.469Z" fill="#664E27"/>
<path d="M57.6562 105.469C64.6461 105.469 70.3125 99.8024 70.3125 92.8125C70.3125 85.8226 64.6461 80.1562 57.6562 80.1562C50.6664 80.1562 45 85.8226 45 92.8125C45 99.8024 50.6664 105.469 57.6562 105.469Z" fill="#664E27"/>
<path d="M72.0006 50.3437C63.0006 57.9375 50.9069 61.3125 39.0944 59.0625C37.4069 58.7812 36.0006 64.6875 37.9694 65.25C51.4694 67.7812 65.5319 63.8437 75.9381 55.125C77.3444 53.7187 73.1256 49.2187 72.0006 50.3437ZM140.907 58.7812C129.094 60.75 117.001 57.6562 108.001 50.0625C106.876 48.9375 102.376 53.4375 104.063 54.8437C114.469 63.8437 128.532 67.5 142.032 64.9687C144.001 64.4062 142.594 58.5 140.907 58.7812Z" fill="#917524"/>
<path d="M174.375 52.0312C174.375 78.4688 138.656 78.4688 138.656 52.0312C138.656 32.625 156.656 14.0625 156.656 14.0625C156.656 14.0625 174.375 32.9062 174.375 52.0312Z" fill="#65B1EF"/>
</svg>
