<svg width="50" height="50" viewBox="0 0 50 50" fill="none" xmlns="http://www.w3.org/2000/svg">
<circle cx="25" cy="25" r="24.5" fill="white" stroke="#AFAFAF"/>
<path d="M21.2473 15.2408C21.0888 15.3983 21 15.6096 21 15.8297C21 16.0498 21.0888 16.2611 21.2473 16.4186L30.106 25.2323L21.2473 34.0442C21.0888 34.2017 21 34.413 21 34.6331C21 34.8532 21.0888 35.0645 21.2473 35.222C21.3244 35.2987 21.4166 35.3598 21.5183 35.4014C21.6201 35.4431 21.7295 35.4645 21.84 35.4645C21.9505 35.4645 22.0598 35.4431 22.1616 35.4014C22.2634 35.3598 22.3555 35.2987 22.4326 35.222L31.8531 25.8476C32.0185 25.683 32.1111 25.4622 32.1111 25.2323C32.1111 25.0024 32.0185 24.7816 31.8531 24.617L22.4326 15.2426C22.3555 15.1658 22.2634 15.1048 22.1616 15.0631C22.0598 15.0215 21.9505 15 21.84 15C21.7295 15 21.6201 15.0215 21.5183 15.0631C21.4166 15.1048 21.3244 15.1658 21.2473 15.2426V15.2408Z" fill="#AFAFAF"/>
</svg>
