<svg width="40" height="40" viewBox="0 0 40 40" fill="none" xmlns="http://www.w3.org/2000/svg">
<path d="M30 13.3359C32.7614 13.3359 35 11.0974 35 8.33594C35 5.57451 32.7614 3.33594 30 3.33594C27.2386 3.33594 25 5.57451 25 8.33594C25 11.0974 27.2386 13.3359 30 13.3359Z" stroke="black" stroke-width="2" stroke-linecap="round" stroke-linejoin="round"/>
<path d="M10 25C12.7614 25 15 22.7614 15 20C15 17.2386 12.7614 15 10 15C7.23858 15 5 17.2386 5 20C5 22.7614 7.23858 25 10 25Z" stroke="black" stroke-width="2" stroke-linecap="round" stroke-linejoin="round"/>
<path d="M30 36.6641C32.7614 36.6641 35 34.4255 35 31.6641C35 28.9026 32.7614 26.6641 30 26.6641C27.2386 26.6641 25 28.9026 25 31.6641C25 34.4255 27.2386 36.6641 30 36.6641Z" stroke="black" stroke-width="2" stroke-linecap="round" stroke-linejoin="round"/>
<path d="M14.3164 22.5156L25.6997 29.149" stroke="black" stroke-width="2" stroke-linecap="round" stroke-linejoin="round"/>
<path d="M25.6831 10.8516L14.3164 17.4849" stroke="black" stroke-width="2" stroke-linecap="round" stroke-linejoin="round"/>
</svg>
