<svg width="20" height="20" viewBox="0 0 20 20" fill="none" xmlns="http://www.w3.org/2000/svg">
  <path
    d="M9.99961 6.66562C10.1943 6.66524 10.383 6.73305 10.5329 6.85729L15.5329 11.024C15.7031 11.1654 15.8101 11.3687 15.8305 11.589C15.8508 11.8094 15.7827 12.0288 15.6413 12.199C15.4998 12.3691 15.2966 12.4762 15.0762 12.4965C14.8559 12.5168 14.6365 12.4487 14.4663 12.3073L9.99961 8.57396L5.53294 12.174C5.4477 12.2432 5.34962 12.2949 5.24434 12.3261C5.13905 12.3573 5.02865 12.3673 4.91946 12.3557C4.81027 12.3441 4.70445 12.311 4.60808 12.2584C4.51172 12.2057 4.42671 12.1346 4.35794 12.049C4.28162 11.9633 4.22382 11.8627 4.18816 11.7537C4.1525 11.6446 4.13975 11.5294 4.1507 11.4152C4.16166 11.3009 4.19608 11.1902 4.25181 11.0899C4.30755 10.9896 4.3834 10.9019 4.47461 10.8323L9.47461 6.80729C9.62884 6.70269 9.81369 6.65281 9.99961 6.66562Z"
    fill="#1B1B1B"
  />
</svg>