<svg width="23" height="25" viewBox="0 0 23 25" fill="none" xmlns="http://www.w3.org/2000/svg">
<path d="M15.6107 24.6126H12.0872C10.476 24.6518 8.87336 24.3624 7.37356 23.7615C5.87377 23.1606 4.50711 22.2604 3.35397 21.1137C2.20083 19.9671 1.2845 18.5972 0.658868 17.0846C0.0332387 15.5721 -0.289063 13.9474 -0.289062 12.3061C-0.289063 10.6648 0.0332387 9.04014 0.658868 7.52758C1.2845 6.01501 2.20083 4.64512 3.35397 3.49848C4.50711 2.35185 5.87377 1.45161 7.37356 0.850734C8.87336 0.249855 10.476 -0.0395282 12.0872 -0.000408778H22.6369V4.76972H12.0872C11.0964 4.73898 10.1096 4.91117 9.18535 5.27607C8.2611 5.64098 7.41821 6.19118 6.70667 6.89404C5.99513 7.59689 5.42943 8.43809 5.04312 9.36776C4.65681 10.2974 4.45775 11.2966 4.45775 12.3061C4.45775 13.3156 4.65681 14.3148 5.04312 15.2445C5.42943 16.1741 5.99513 17.0153 6.70667 17.7182C7.41821 18.421 8.2611 18.9712 9.18535 19.3361C10.1096 19.7011 11.0964 19.8732 12.0872 19.8425H15.6107V24.6126Z" fill="#0080C6"/>
</svg>
