<svg width="24" height="16" viewBox="0 0 24 16" fill="none" xmlns="http://www.w3.org/2000/svg">
<path d="M22.9991 5.71047C23.0485 4.27913 22.7355 2.85849 22.0891 1.58047C21.6505 1.05607 21.0418 0.702182 20.3691 0.580472C17.5866 0.327998 14.7926 0.224516 11.9991 0.270472C9.2157 0.222431 6.43176 0.322573 3.65905 0.570473C3.11087 0.670189 2.60357 0.927314 2.19905 1.31047C1.29905 2.14047 1.19905 3.56047 1.09905 4.76047C0.953962 6.91804 0.953962 9.08291 1.09905 11.2405C1.12798 11.9159 1.22854 12.5863 1.39905 13.2405C1.51963 13.7455 1.76357 14.2128 2.10905 14.6005C2.51632 15.0039 3.03543 15.2757 3.59905 15.3805C5.75497 15.6466 7.92727 15.7569 10.0991 15.7105C13.5991 15.7605 16.669 15.7105 20.299 15.4305C20.8765 15.3321 21.4102 15.06 21.8291 14.6505C22.109 14.3704 22.3181 14.0276 22.4391 13.6505C22.7967 12.5531 22.9723 11.4046 22.959 10.2505C22.9991 9.69047 22.9991 6.31047 22.9991 5.71047ZM9.73905 10.8505V4.66047L15.659 7.77047C13.9991 8.69047 11.809 9.73047 9.73905 10.8505Z" fill="white"/>
</svg>
